<svg width="80" height="25" viewBox="0 0 80 25" fill="none" xmlns="http://www.w3.org/2000/svg">
<path fill-rule="evenodd" clip-rule="evenodd" d="M27.3459 9.06806C29.3829 9.06806 31.0342 10.7136 31.0342 12.7435C31.0342 14.7734 29.3829 16.4189 27.3459 16.4189C25.3089 16.4189 23.6575 14.7734 23.6575 12.7435C23.6575 10.7136 25.3088 9.06806 27.3459 9.06806ZM27.3458 6.70454C30.9703 6.70454 33.9085 9.40827 33.9085 12.7435C33.9085 16.0787 30.9703 18.7825 27.3458 18.7825C23.7214 18.7825 20.7832 16.0787 20.7832 12.7435C20.7832 9.40827 23.7214 6.70454 27.3458 6.70454ZM73.9216 8.99481C75.2751 8.89586 76.083 9.47996 76.6284 10.3094L70.6526 12.5995C70.7035 10.6035 72.1709 9.12282 73.9216 8.99481ZM79.85 11.1765C78.8273 8.24604 76.8171 6.63945 73.6568 6.70454C70.4965 6.76967 67.8838 9.40827 67.8838 12.7435C67.8838 16.0787 70.795 18.7825 74.3861 18.7825C76.6548 18.7825 78.6517 17.7031 79.8152 16.0675L77.5834 14.7337C76.9101 15.7483 75.7462 16.4189 74.4231 16.4189C73.0164 16.4189 71.7898 15.661 71.1413 14.5377L79.8571 11.1906L79.85 11.1765V11.1765Z" fill="#FF4130"/>
<path fill-rule="evenodd" clip-rule="evenodd" d="M41.4962 6.70459C45.1207 6.70459 48.0589 9.40832 48.0589 12.7436C48.0589 16.0788 45.1207 18.7825 41.4962 18.7825C37.8718 18.7825 34.9336 16.0788 34.9336 12.7436C34.9336 9.40832 37.8718 6.70459 41.4962 6.70459ZM41.6169 9.06811C43.6539 9.06811 45.3052 10.7136 45.3052 12.7436C45.3052 14.7735 43.6539 16.419 41.6169 16.419C39.5799 16.419 37.9285 14.7735 37.9285 12.7436C37.9285 10.7136 39.5798 9.06811 41.6169 9.06811Z" fill="#FFBC00"/>
<path fill-rule="evenodd" clip-rule="evenodd" d="M61.7732 7.1152H59.0395V7.64953C58.0555 7.0513 56.8867 6.7044 55.6326 6.7044C52.1303 6.7044 49.2911 9.40813 49.2911 12.7434C49.2911 16.0786 52.1303 18.7823 55.6326 18.7823C56.8867 18.7823 58.0555 18.4354 59.0395 17.8372V18.6905C59.0395 21.8626 54.4444 23.3145 52.276 19.7371L49.8238 20.6676C52.124 25.8694 61.7732 25.5212 61.7732 18.6906V7.1152ZM55.7492 9.06792C57.7176 9.06792 59.3132 10.7134 59.3132 12.7434C59.3132 14.7733 57.7176 16.4188 55.7492 16.4188C53.7808 16.4188 52.1852 14.7733 52.1852 12.7434C52.1852 10.7134 53.7808 9.06792 55.7492 9.06792ZM10.3872 8.58383H16.9428H19.6532H19.7135C20.5821 14.5607 16.7747 18.7636 10.3313 18.7636C4.62539 18.7636 0 14.5632 0 9.38177C0 4.20038 4.62543 0 10.3313 0C12.9901 0 15.4139 0.91229 17.2449 2.41062L15.4131 4.36449C14.089 3.19642 12.3001 2.47969 10.3313 2.47969C6.25159 2.47969 2.94447 5.5563 2.94447 9.35142C2.94447 13.1466 6.25159 16.2232 10.3313 16.2232C13.8667 16.2232 16.6361 14.4015 16.9982 11.0217H10.3871V8.58374L10.3872 8.58383Z" fill="#0085F8"/>
<path fill-rule="evenodd" clip-rule="evenodd" d="M66.5169 0.602051H63.7832V18.4677H66.5169V0.602051Z" fill="#00AA4A"/>
</svg>
