<svg width="34" height="29" viewBox="0 0 34 29" fill="none" xmlns="http://www.w3.org/2000/svg">
<g clip-path="url(#clip0_319_64)">
<path fill-rule="evenodd" clip-rule="evenodd" d="M4.15267 2.79986e-05H19.3376C21.6821 2.79986e-05 23.4903 1.87636 23.4903 4.24891C27.0668 4.24891 27.6291 3.92499 29.3161 6.56632L33.2802 12.7691C33.827 13.6254 34.0225 14.5747 33.9948 15.5655L33.8581 20.3433C33.8045 22.2265 32.5345 23.8323 30.7419 24.2924C29.304 29.003 23.2809 30.6398 19.6819 27.056L19.6785 27.0595C18.9448 26.3289 18.3808 25.4278 18.0537 24.4199H15.9688C14.453 29.0461 8.50779 30.5968 4.95033 27.0543L4.94687 27.0578C4.19074 26.3048 3.61628 25.371 3.29272 24.3286C2.49679 24.158 1.78219 23.7583 1.22158 23.2017L1.21812 23.2052C0.467176 22.4574 0 21.4219 0 20.283V4.13174C0 1.8643 1.87562 -0.00341797 4.15267 -0.00341797V2.79986e-05ZM4.15267 2.14687H19.3376C20.4363 2.14687 21.3344 3.04109 21.3344 4.13519V6.39574H25.5805C26.6792 6.39574 26.9439 6.83683 27.5322 7.75862L31.4686 13.9183C31.7627 14.3766 31.8614 14.9641 31.8458 15.5069L31.7091 20.2847C31.678 21.3771 30.8094 22.273 29.7124 22.273H28.868C28.8974 24.8351 26.8834 26.851 24.3779 26.851C21.8725 26.851 19.8567 24.8351 19.8878 22.273H14.1364C14.1658 24.8351 12.1518 26.851 9.64631 26.851C7.14086 26.851 5.12509 24.8351 5.15623 22.273H4.15267C3.05394 22.273 2.15593 21.3788 2.15593 20.2847V4.13347C2.15593 3.03937 3.05394 2.14514 4.15267 2.14514V2.14687ZM21.2236 8.37028L24.8174 8.3789C25.1565 8.3789 25.4905 8.58566 25.6704 8.86995L28.3662 13.1481C28.6725 13.6357 28.4458 14.6023 27.6481 14.6006L21.2253 14.592C20.8862 14.592 20.6076 14.3163 20.6076 13.9769V8.98367C20.6076 8.64596 20.8845 8.36856 21.2253 8.36856L21.2236 8.37028ZM9.64631 19.9194C12.8992 19.9194 12.8992 24.8403 9.64631 24.8403C6.39338 24.8403 6.39338 19.9194 9.64631 19.9194ZM24.3796 19.9194C27.6326 19.9194 27.6326 24.8403 24.3796 24.8403C21.1267 24.8403 21.1267 19.9194 24.3796 19.9194ZM24.1685 10.5171L22.7618 10.5137V12.4572L25.3936 12.4606L24.1685 10.5171Z" fill="white"/>
</g>
<defs>
<clipPath id="clip0_319_64">
<rect width="34" height="29" fill="white"/>
</clipPath>
</defs>
</svg>
