<svg width="12" height="11" viewBox="0 0 12 11" fill="none" xmlns="http://www.w3.org/2000/svg">
<path d="M5.05514 0.726234C5.36592 -0.170471 6.63408 -0.17047 6.94486 0.726235L7.56303 2.50984C7.70255 2.91242 8.08182 3.18237 8.50789 3.18237H10.364C11.3482 3.18237 11.7404 4.45477 10.9269 5.00886L9.5387 5.95442C9.1654 6.20868 9.00888 6.68162 9.15679 7.10838L9.71281 8.71268C10.0282 9.62276 9.00106 10.4089 8.205 9.86664L6.56295 8.74819C6.2233 8.51684 5.7767 8.51684 5.43705 8.74819L3.795 9.86664C2.99894 10.4089 1.97177 9.62276 2.28719 8.71268L2.84321 7.10838C2.99112 6.68161 2.8346 6.20868 2.4613 5.95442L1.07309 5.00886C0.259601 4.45477 0.651769 3.18237 1.63604 3.18237H3.49211C3.91818 3.18237 4.29745 2.91241 4.43697 2.50984L5.05514 0.726234Z" fill="#28705F"/>
</svg>
