<svg width="97" height="19" viewBox="0 0 97 19" fill="none" xmlns="http://www.w3.org/2000/svg">
<g clip-path="url(#clip0_329_566)">
<path fill-rule="evenodd" clip-rule="evenodd" d="M4.71661e-05 6.47903H2.57914V4.42216C2.63423 1.34181 4.08935 0.0411984 6.85125 0.0713651H9.12673V2.80346H7.38885C6.47439 2.80346 6.00042 3.36074 6.00042 4.32774V6.47908H9.11173L8.85595 9.37509H6.00042V18.6273H2.57909V9.37509H0V6.47908L4.71661e-05 6.47903ZM38.1673 6.27622H39.3988C42.1333 6.27622 44.3748 8.62612 44.4404 11.5239C44.4404 11.5266 44.4419 13.6607 44.4419 13.8563H41.2405H36.643C36.8277 15.9709 38.1242 16.3921 39.7847 16.4024C41.1554 16.4109 42.5697 16.1124 43.388 15.6473L44.0701 18.0942C42.8953 18.6596 41.6772 19.0002 39.3989 19.0002C35.9581 19.0002 33.1242 17.5951 33.1242 13.6275V11.6491C33.1242 8.694 35.3936 6.27627 38.1674 6.27627L38.1673 6.27622ZM41.2405 11.5239V11.0724C41.2405 9.76306 40.3186 8.6918 39.1919 8.6918H38.6916C37.5648 8.6918 36.643 9.76306 36.643 11.0724V11.5239H41.2405ZM28.355 6.27622H29.6827C30.7366 6.27622 31.7227 6.57674 32.5582 7.09487L31.7555 9.7485C31.2631 9.34087 30.5827 9.0876 29.8339 9.0876H29.171C27.6782 9.0876 26.457 10.2356 26.457 11.4656V13.8108C26.457 15.0409 27.6787 16.1888 29.171 16.1888H29.8339C30.5512 16.1888 31.2057 15.9563 31.6923 15.5784L32.603 18.1538C31.7581 18.6891 30.7554 19.0001 29.6827 19.0001H28.355C25.3644 19.0001 22.9176 16.5824 22.9176 13.6274V11.649C22.9176 8.6939 25.0351 6.27617 28.355 6.27617V6.27622ZM77.9425 6.27622H79.2389C82.1589 6.27622 84.548 8.69395 84.548 11.649V13.6274C84.548 16.5825 82.1589 19.0002 79.2389 19.0002H77.9425C75.0225 19.0002 72.6334 16.5825 72.6334 13.6274V11.649C72.6334 8.69395 75.0225 6.27622 77.9425 6.27622ZM78.3209 9.0876H78.8605C80.0759 9.0876 81.0703 10.0939 81.0703 11.3239V13.9525C81.0703 15.1825 80.0759 16.1888 78.8605 16.1888H78.3209C77.1055 16.1888 76.1111 15.1825 76.1111 13.9525V11.3239C76.1111 10.0939 77.1055 9.0876 78.3209 9.0876ZM64.6905 6.27622H65.9869C68.9069 6.27622 71.296 8.69395 71.296 11.649V13.6274C71.296 16.5825 68.9069 19.0002 65.9869 19.0002H64.6905C61.7704 19.0002 59.3814 16.5825 59.3814 13.6274V11.649C59.3814 8.69395 61.7704 6.27622 64.6905 6.27622ZM65.0689 9.0876H65.6085C66.8239 9.0876 67.8183 10.0939 67.8183 11.3239V13.9525C67.8183 15.1825 66.8239 16.1888 65.6085 16.1888H65.0689C63.8534 16.1888 62.8591 15.1825 62.8591 13.9525V11.3239C62.8591 10.0939 63.8534 9.0876 65.0689 9.0876ZM86.1093 0.283535L89.6743 0.000244141V12.4466L93.3988 6.46877H97L93.1992 12.5689L97 18.669H93.3988L89.6743 12.6912V18.669H86.1093V0.283535ZM46.0495 0.283535L49.6145 0.000244141V8.25147C50.3757 7.0228 51.548 6.25536 53.1308 6.25536C55.7845 6.25536 57.9357 8.19892 57.9357 12.5965C57.9357 16.9316 55.9696 18.9376 53.1308 18.9376C51.2983 18.9376 50.0562 17.9877 49.3345 16.5091V18.6691H46.0496V0.28363L46.0495 0.283535ZM49.6145 11.4403V13.7864C49.8664 15.3926 50.6771 16.2095 51.9475 16.2095C53.7456 16.2095 54.458 14.5965 54.458 12.6068C54.458 10.6171 53.6222 9.00412 51.9475 9.00412C50.7055 9.00412 49.8714 9.81384 49.6145 11.4402V11.4403ZM17.9144 6.59063H21.3302V18.669H17.9144V16.8961C17.1719 18.1512 15.9937 18.9375 14.3267 18.9375C11.4879 18.9375 9.52179 16.9315 9.52179 12.5964C9.52179 8.19882 11.673 6.25526 14.3267 6.25526C15.9598 6.25526 17.156 7.07234 17.9144 8.37018V6.59063ZM17.9144 13.0163V12.2057C17.8005 10.4049 16.9169 9.00416 15.5099 9.00416C13.8353 9.00416 12.9994 10.6171 12.9994 12.6068C12.9994 14.5966 13.7119 16.2095 15.5099 16.2095C16.953 16.2095 17.803 14.8132 17.9144 13.0163V13.0163Z" fill="#0078F5"/>
</g>
<defs>
<clipPath id="clip0_329_566">
<rect width="97" height="19" fill="white"/>
</clipPath>
</defs>
</svg>
