<svg width="25" height="16" viewBox="0 0 25 16" fill="none" xmlns="http://www.w3.org/2000/svg">
<g clip-path="url(#clip0_319_79)">
<path fill-rule="evenodd" clip-rule="evenodd" d="M6.8869 3.55128C6.67625 3.48827 6.53644 3.40868 6.42665 3.30977C6.25264 3.15308 6.17827 3.00519 6.14601 2.86221C6.10641 2.78474 6.07302 2.68737 6.05194 2.55869C6.00268 2.25739 6.1065 1.85755 6.27607 1.62059C6.60611 1.15937 7.0753 1.2047 7.56648 1.24235C8.28654 1.29763 9.0455 1.32532 9.74632 1.33184C10.1107 1.33522 10.2918 1.34243 10.5861 1.4684C10.9836 1.63854 11.2706 1.96706 11.3267 2.39369C11.3652 2.68731 11.2956 2.92618 11.0941 3.1454H15.088C14.4984 2.85263 14.3606 2.1096 14.7277 1.60195C14.887 1.38161 15.0496 1.28714 15.3242 1.21354C15.2217 0.665428 15.5592 0.172337 16.096 0.0407478C16.4165 -0.0377802 16.7166 0.0126297 17.0334 0.0630396C17.698 0.168733 18.0599 0.207495 18.5666 0.787271C18.838 1.09794 19.0737 1.48026 19.0233 1.9016C18.9869 2.20602 18.8365 2.42472 18.6184 2.56541C18.6114 2.57907 18.604 2.593 18.5961 2.60725C18.4138 2.93396 18.2513 3.00211 17.9252 3.1454H18.7127C19.1619 3.1454 19.526 3.52311 19.526 3.98899C19.526 4.15097 19.5343 4.75907 19.5183 4.88033C19.7367 4.86614 20.0135 4.86752 20.2574 4.88642C20.5113 4.90607 20.7292 5.0448 20.8642 5.24602C21.895 5.45974 22.8141 5.99191 23.5218 6.73933C25.5062 8.83508 25.4893 12.1878 23.491 14.2608C21.4794 16.3478 18.2181 16.3478 16.2064 14.2608C15.3958 13.4199 14.8542 12.2999 14.7267 11.0518C14.7007 11.0289 14.6758 11.0039 14.6521 10.977C14.6219 10.9425 14.595 10.9062 14.5713 10.8684L14.5745 11.2829C14.5745 11.7487 14.2104 12.1265 13.7613 12.1265H13.2483C12.6533 13.438 11.0903 13.9552 9.87556 13.1961C8.97455 14.8999 7.24409 16 5.31799 16C2.1169 16 -0.323868 13.0228 0.189109 9.74815C0.0101032 9.52564 -0.0422169 9.23287 0.033837 8.96768L0.0329691 8.96742C0.894011 5.98175 3.92611 4.24067 6.83871 5.10629C6.79395 5.0017 6.76899 4.8859 6.76899 4.76405V3.98899C6.76899 3.8287 6.81207 3.6789 6.88689 3.55128L6.8869 3.55128ZM17.988 6.12022C18.6689 5.80701 19.4242 5.66668 20.1971 5.72673L19.9264 5.98307C22.2863 6.02612 24.1866 8.02381 24.1866 10.4822C24.1866 12.9676 22.2444 14.9824 19.8487 14.9824C17.3307 14.9824 15.3412 12.7667 15.5223 10.1547L15.2525 10.4102C15.2766 8.7214 16.147 7.24551 17.4431 6.41797L17.2047 5.72933L12.5764 10.5603C12.6163 10.6819 12.6428 10.8101 12.6538 10.9428H13.7613V11.2829H12.6478C12.553 12.0841 11.8948 12.7046 11.0967 12.7046C10.3954 12.7046 9.802 12.2254 9.60411 11.5654C9.18056 13.6176 7.42264 15.1564 5.318 15.1564C2.89699 15.1564 0.934391 13.1203 0.934391 10.6088C0.934391 10.0178 1.04311 9.45315 1.24085 8.93512L0.811225 9.20798C1.39153 7.19574 3.18951 5.72896 5.318 5.72896C6.3242 5.72896 7.25655 6.05679 8.02133 6.61501C8.26138 6.27294 8.48077 5.95904 8.65268 5.71143C8.91208 5.33775 9.06342 5.11508 9.15473 4.98773L9.08935 4.76406H7.58216V3.98899H8.86205C8.7005 3.44168 8.68892 3.42187 8.6638 3.41684C8.5855 3.40112 8.49337 3.49039 8.43717 3.38835C8.35219 3.23405 8.39379 3.10198 8.30502 3.08991C8.18068 3.07307 8.06614 3.12264 7.9858 3.05089C7.94926 3.01821 7.90245 2.95917 7.72865 2.90119C7.55485 2.84315 7.25395 2.78623 7.09842 2.73878C6.84076 2.66015 6.97025 2.59587 6.92156 2.52152C6.88353 2.46359 6.80115 2.47238 6.89006 2.20412C6.94667 2.0333 7.03727 2.04823 7.35762 2.07127C7.56296 2.08604 7.87402 2.11342 8.29788 2.13348C8.72179 2.1535 9.25845 2.16616 9.57665 2.17039C9.8948 2.17458 9.99444 2.17039 10.1052 2.19253C10.28 2.22747 10.4993 2.32576 10.523 2.50574C10.5291 2.55213 10.5128 2.57108 10.4599 2.58268C10.3322 2.61075 9.93022 2.59105 9.78909 2.58798C9.5913 2.58369 9.68721 2.60227 9.49937 2.75774C9.40892 2.83261 9.25442 2.93598 9.13549 2.99078C9.01655 3.04564 8.9332 3.05194 8.89456 3.06359C8.77931 3.09817 9.06153 3.12009 9.08363 3.12682C9.14243 3.14488 9.146 3.20381 9.12227 3.21435C9.10803 3.2207 9.07954 3.22489 9.06229 3.22806C9.04693 3.23087 9.04045 3.23293 9.26483 3.98899H16.6292C16.4698 3.44289 16.6229 3.67408 16.5515 3.49547C16.4742 3.30204 16.2727 2.92115 16.3626 2.65448C16.4497 2.39634 16.886 2.2207 16.9871 2.11585C17.0198 2.08191 16.9543 2.0916 16.7345 2.13772C16.5146 2.18379 16.1404 2.26629 15.9136 2.32454C15.6867 2.38273 15.6072 2.41673 15.53 2.41186C15.3505 2.40058 15.2861 2.23012 15.3757 2.10616C15.4108 2.05766 15.4622 2.04309 15.6844 1.98728C15.9066 1.93147 16.2995 1.83441 16.5825 1.7786C16.8655 1.72284 17.0385 1.70828 17.1344 1.66703C17.2303 1.62578 17.249 1.55784 17.2443 1.50446C17.2397 1.45108 17.2116 1.41227 17.0525 1.37828C16.8935 1.34433 16.6035 1.31521 16.4211 1.26914C16.2387 1.22302 16.1638 1.15995 16.1335 1.09202C16.103 1.02408 16.1171 0.951267 16.1732 0.907581C16.28 0.824498 16.4887 0.835567 16.6513 0.857858C16.7917 0.87708 17.0298 0.913671 17.2238 0.945706C17.4178 0.977742 17.5677 1.00517 17.7331 1.12871C17.8985 1.2522 18.0793 1.47179 18.1608 1.61815C18.2424 1.76456 18.2247 1.83774 18.1762 1.85834C18.1277 1.87894 18.0484 1.84691 18.0021 1.90176C17.9558 1.95667 17.9426 2.09848 17.8941 2.18543C17.8455 2.27232 17.7618 2.30436 17.5854 2.38215C17.409 2.45988 17.14 2.58342 16.9857 2.67031C16.8313 2.75721 16.7917 2.80757 16.8005 2.91506C16.8077 3.00344 16.9117 3.38676 16.9768 3.42054C17.0033 3.43426 17.043 3.43426 17.1025 3.51893C17.1637 3.60588 17.2914 3.87292 17.3527 3.98899H18.7127V4.76405H17.5957C17.6803 5.06419 17.8283 5.5783 17.9117 5.86499C17.9457 5.98185 17.969 6.06091 17.988 6.12022V6.12022ZM8.36765 6.89386C9.22767 7.65457 9.82043 8.73088 9.97902 9.95027C10.126 9.79427 10.303 9.66888 10.5004 9.58426C10.4498 9.42567 10.375 9.16832 10.2536 8.75169C10.0244 7.96498 9.62902 6.61045 9.3124 5.52694C9.12599 5.82009 8.65135 6.48914 8.36765 6.89386ZM7.3644 7.54776C6.78379 7.12923 6.07858 6.88369 5.318 6.88369C3.33488 6.88369 1.72724 8.55142 1.72724 10.6088C1.72724 12.6661 3.33488 14.3338 5.318 14.3338C7.04416 14.3338 8.48556 13.0702 8.8302 11.386L6.36606 11.1034C6.18475 11.5161 5.78371 11.803 5.31799 11.803C4.6822 11.803 4.16683 11.2683 4.16683 10.6087C4.16683 9.67507 5.15001 9.11357 5.90728 9.58267L7.3644 7.54776ZM7.70971 7.83053C7.13267 8.65071 6.70917 9.26019 6.24468 9.90018C6.38882 10.1027 6.47233 10.3533 6.46901 10.6238L8.90748 10.7073C8.93591 9.56907 8.47122 8.53655 7.70971 7.83053ZM10.9143 9.4729C11.2987 9.42652 11.6746 9.52824 11.9798 9.74555L16.7059 4.76406H9.49636C9.84024 5.91101 10.3715 7.67098 10.6592 8.61984C10.7887 9.04679 10.8688 9.30944 10.9143 9.4729ZM17.8573 7.30651L19.079 9.57314C18.8358 9.79491 18.6823 10.12 18.6823 10.4822C18.6823 11.1505 19.2045 11.6923 19.8487 11.6923C20.4929 11.6923 21.0151 11.1505 21.0151 10.4822C21.0151 9.69858 20.3101 9.12723 19.5821 9.30398L18.4238 6.99314C18.8616 6.80045 19.3432 6.69385 19.8487 6.69385C21.8655 6.69385 23.5005 8.38997 23.5005 10.4822C23.5005 12.5745 21.8655 14.2706 19.8487 14.2706C17.8319 14.2706 16.197 12.5745 16.197 10.4822C16.197 9.15217 16.8578 7.9824 17.8573 7.30651H17.8573ZM14.4439 10.4841C14.431 10.3312 14.4683 9.90679 14.4865 9.75985L14.0918 10.1718C14.2363 10.2386 14.3586 10.3478 14.4439 10.4841ZM5.61098 8.59553L6.14081 7.8542C5.14654 7.53537 4.07266 7.82555 3.35392 8.57117C2.26926 9.69636 2.26926 11.5212 3.35392 12.6463C4.63096 13.9712 6.75899 13.6958 7.69419 12.103L6.75455 11.9952C5.99993 12.8392 4.7182 12.8683 3.92902 12.0497C3.16185 11.2538 3.16185 9.96372 3.92902 9.16779C4.35748 8.72336 4.98112 8.49127 5.61098 8.59553V8.59553ZM7.74692 9.20396L7.31729 9.81164L7.99626 9.83488C7.93751 9.61275 7.85416 9.40322 7.74692 9.20396H7.74692ZM11.5223 8.65945L11.8036 8.7321L14.7678 5.60769H10.6002L11.5222 8.65945H11.5223ZM17.673 8.69307L17.6398 8.63128C16.7301 9.8038 16.8128 11.4974 17.8415 12.5645C18.9499 13.7145 20.7475 13.7144 21.8559 12.5645C22.9644 11.4146 22.9644 9.54984 21.8559 8.39993C21.2769 7.79929 20.483 7.48157 19.6189 7.54581L20.0657 8.44081C21.0618 8.55349 21.8284 9.42943 21.8284 10.4822C21.8284 11.6163 20.9419 12.5359 19.8487 12.5359C18.3503 12.5359 17.3949 10.8706 18.1094 9.50409L17.673 8.69308V8.69307Z" fill="white"/>
</g>
<defs>
<clipPath id="clip0_319_79">
<rect width="25" height="16" fill="white"/>
</clipPath>
</defs>
</svg>
