<svg width="113" height="24" viewBox="0 0 113 24" fill="none" xmlns="http://www.w3.org/2000/svg">
<g clip-path="url(#clip0_329_575)">
<path fill-rule="evenodd" clip-rule="evenodd" d="M29.9652 10.2179C30.9004 10.2179 31.6656 10.9872 31.6656 11.9276V17.6056C31.6656 18.5459 30.9005 19.3153 29.9653 19.3153C29.03 19.3153 28.2649 18.546 28.2649 17.6056V11.9276C28.2649 10.9873 29.03 10.2179 29.9652 10.2179ZM87.4393 6.64969C82.5188 6.52114 78.8494 4.33857 75.902 0.970501C74.927 3.86254 75.1751 6.42972 77.8649 8.35019C76.9892 8.41485 76.1134 8.17429 75.2374 7.591C75.1365 10.124 76.8685 11.8807 79.8283 13.1181C78.9221 13.2991 78.0163 13.2506 77.11 13.0271C78.2013 15.2999 79.9453 16.6252 82.486 16.7927C80.1409 18.758 77.3712 19.4433 74.3012 19.2223C86.0156 25.6565 98.7194 17.2928 98.1008 5.22221C99.192 4.50955 100.151 3.59634 101 2.51936C99.9148 3.09968 98.8035 3.36601 97.6779 3.46071C98.9559 2.51936 99.8327 1.45676 100.305 0.272042C99.3089 1.03659 98.1207 1.51193 96.802 1.79051C92.58 -2.42386 86.4103 1.45693 87.4392 6.64969H87.4393ZM56.3531 9.51493C58.5344 9.51493 60.3751 10.6362 61.1715 12.3599C61.9439 14.0316 61.3205 15.1867 59.605 15.1867H54.2309C54.6077 15.9832 55.4525 16.5381 56.4345 16.5381C57.394 16.5381 58.1361 16.281 58.6522 15.9648C60.2992 14.9558 61.8682 16.6131 60.0741 18.0954C59.216 18.8044 57.9825 19.2205 56.3531 19.2205C53.4121 19.2205 51.028 17.0478 51.028 14.3677C51.028 11.6876 52.8216 9.51493 56.3531 9.51493ZM58.5278 13.1187C58.1113 12.4335 57.3299 11.972 56.4345 11.972C55.3593 11.972 54.6396 12.4334 54.283 13.1187H58.5278ZM63.668 19.0829H63.6681C64.5558 19.0829 65.2822 18.3135 65.2822 17.3732V14.1163C65.2822 13.3652 66.0673 12.6364 66.7889 12.6364H69.0301C69.9652 12.6364 70.7304 11.9269 70.7304 11.0597C70.7304 10.1926 69.9653 9.48307 69.0301 9.48307H66.8812C64.1144 9.48307 62.0539 11.6069 62.0539 14.0699V17.3732C62.0539 18.3134 62.7803 19.0829 63.668 19.0829H63.668ZM10.3855 10.7316V10.7316C10.3855 11.672 9.62037 12.4414 8.68516 12.4414H3.40073V14.3042C3.40073 15.1334 4.15619 15.9987 5.03047 15.9987H8.68512C9.62032 15.9987 10.3855 16.7685 10.3855 17.7084V17.7085C10.3855 18.6483 9.61989 19.4182 8.68512 19.4182H4.98432C2.40766 19.4182 0 17.3045 0 14.3042V7.28621C0 6.34585 0.765118 5.57647 1.70036 5.57647H1.70041C2.63561 5.57647 3.40077 6.34593 3.40077 7.28621V9.02189H8.68521C9.62041 9.02189 10.3856 9.79123 10.3856 10.7316L10.3855 10.7316ZM50.4566 12.0782C50.4566 13.0177 49.6909 13.788 48.7562 13.788H45.5037V13.7934C45.5037 14.6213 46.0744 15.8594 46.9487 15.8594H48.8024C49.7376 15.8594 50.5027 16.6296 50.5027 17.5691C50.5027 18.5087 49.7367 19.2789 48.8024 19.2789H46.9025C44.0422 19.2789 42.1029 16.4223 42.1029 13.422V7.28621C42.1029 6.34585 42.868 5.57647 43.8033 5.57647H43.8033C44.7385 5.57647 45.5037 6.34624 45.5037 7.28621V10.3685H48.7562C49.6914 10.3685 50.4566 11.1387 50.4566 12.0782V12.0782ZM41.1961 12.0782C41.1961 13.0177 40.4304 13.788 39.4957 13.788H36.2432V13.7934C36.2432 14.6213 36.8139 15.8594 37.6882 15.8594H39.5419C40.4771 15.8594 41.2422 16.6296 41.2422 17.5691C41.2422 18.5087 40.4762 19.2789 39.5419 19.2789H37.642C34.7817 19.2789 32.8424 16.4223 32.8424 13.422V7.28621C32.8424 6.34585 33.6076 5.57647 34.5428 5.57647H34.5428C35.478 5.57647 36.2432 6.34624 36.2432 7.28621V10.3685H39.4957C40.4309 10.3685 41.1961 11.1387 41.1961 12.0782V12.0782ZM19.1932 9.61429C20.1197 9.61429 20.8328 10.4098 20.8328 11.324L20.833 14.7666C20.833 15.4764 21.7148 16.1521 22.4061 16.1521C23.2182 16.1521 23.9786 15.5632 23.9786 14.7666V11.324C23.9786 10.3837 24.7041 9.61429 25.6182 9.61429C26.5324 9.61429 27.2578 10.4098 27.2578 11.324V14.7666C27.2578 17.363 24.7686 19.3771 22.4061 19.418C20.4919 19.4512 20.0424 18.9502 19.1847 18.1802C18.3179 18.9503 17.1779 19.418 15.9287 19.418C13.4014 19.418 11.0168 17.1877 11.0168 14.7666V11.324C11.0168 10.3837 11.7422 9.61429 12.6564 9.61429C13.5705 9.61429 14.296 10.4098 14.296 11.324V14.7664C14.296 15.1426 14.5831 16.1521 15.9287 16.1521C16.7496 16.1521 17.5536 15.5634 17.5536 14.7666V11.324C17.5536 10.3837 18.2914 9.61429 19.1932 9.61429ZM29.9652 5.47412C30.9043 5.47412 31.6655 6.23957 31.6655 7.18386C31.6655 8.12815 30.9043 8.8936 29.9652 8.8936C29.0261 8.8936 28.2648 8.12815 28.2648 7.18386C28.2648 6.23957 29.0261 5.47412 29.9652 5.47412Z" fill="#50CEF1"/>
</g>
<defs>
<clipPath id="clip0_329_575">
<rect width="113" height="24" fill="white"/>
</clipPath>
</defs>
</svg>
